<svg width="74" height="22" viewBox="0 0 74 22" fill="none" xmlns="http://www.w3.org/2000/svg">
<path d="M11.79 0.671875V22H6.64844V0.671875H11.79ZM18.2061 0.671875V4.6416H0.378906V0.671875H18.2061ZM24.4902 0.671875L28.416 9.92969L32.3564 0.671875H37.8936L31.0381 14.3389V22H25.8086V14.3389L18.9385 0.671875H24.4902ZM47.9717 14.7637H42.6689V10.7939H47.9717C48.6943 10.7939 49.2803 10.6719 49.7295 10.4277C50.1787 10.1836 50.5059 9.84668 50.7109 9.41699C50.9258 8.97754 51.0332 8.48438 51.0332 7.9375C51.0332 7.35156 50.9258 6.80957 50.7109 6.31152C50.5059 5.81348 50.1787 5.41309 49.7295 5.11035C49.2803 4.79785 48.6943 4.6416 47.9717 4.6416H44.6025V22H39.4609V0.671875H47.9717C49.6807 0.671875 51.1504 0.984375 52.3809 1.60938C53.6211 2.23438 54.5732 3.09375 55.2373 4.1875C55.9014 5.27148 56.2334 6.51172 56.2334 7.9082C56.2334 9.28516 55.9014 10.4863 55.2373 11.5117C54.5732 12.5371 53.6211 13.3379 52.3809 13.9141C51.1504 14.4805 49.6807 14.7637 47.9717 14.7637ZM73.6797 18.0449V22H62.3125V18.0449H73.6797ZM64.1436 0.671875V22H59.002V0.671875H64.1436ZM72.2148 9.13867V12.9619H62.3125V9.13867H72.2148ZM73.7236 0.671875V4.6416H62.3125V0.671875H73.7236Z" fill="#FFCB05"/>
<path d="M11.79 0.671875H15.79V-3.32812H11.79V0.671875ZM11.79 22V26H15.79V22H11.79ZM6.64844 22H2.64844V26H6.64844V22ZM6.64844 0.671875V-3.32812H2.64844V0.671875H6.64844ZM18.2061 0.671875H22.2061V-3.32812H18.2061V0.671875ZM18.2061 4.6416V8.6416H22.2061V4.6416H18.2061ZM0.378906 4.6416H-3.62109V8.6416H0.378906V4.6416ZM0.378906 0.671875V-3.32812H-3.62109V0.671875H0.378906ZM7.79004 0.671875V22H15.79V0.671875H7.79004ZM11.79 18H6.64844V26H11.79V18ZM10.6484 22V0.671875H2.64844V22H10.6484ZM6.64844 4.67188H11.79V-3.32812H6.64844V4.67188ZM14.2061 0.671875V4.6416H22.2061V0.671875H14.2061ZM18.2061 0.641602H0.378906V8.6416H18.2061V0.641602ZM4.37891 4.6416V0.671875H-3.62109V4.6416H4.37891ZM0.378906 4.67188H18.2061V-3.32812H0.378906V4.67188ZM24.4902 0.671875L28.1728 -0.889726L27.1388 -3.32812H24.4902V0.671875ZM28.416 9.92969L24.7334 11.4913L28.4092 20.1594L32.0965 11.4962L28.416 9.92969ZM32.3564 0.671875V-3.32812H29.7117L28.676 -0.89466L32.3564 0.671875ZM37.8936 0.671875L41.469 2.46533L44.375 -3.32812H37.8936V0.671875ZM31.0381 14.3389L27.4627 12.5454L27.0381 13.3919V14.3389H31.0381ZM31.0381 22V26H35.0381V22H31.0381ZM25.8086 22H21.8086V26H25.8086V22ZM25.8086 14.3389H29.8086V13.3901L29.3825 12.5424L25.8086 14.3389ZM18.9385 0.671875V-3.32812H12.4508L15.3646 2.46839L18.9385 0.671875ZM20.8077 2.23348L24.7334 11.4913L32.0986 8.36809L28.1728 -0.889726L20.8077 2.23348ZM32.0965 11.4962L36.0369 2.23841L28.676 -0.89466L24.7355 8.36315L32.0965 11.4962ZM32.3564 4.67188H37.8936V-3.32812H32.3564V4.67188ZM34.3181 -1.12158L27.4627 12.5454L34.6135 16.1323L41.469 2.46533L34.3181 -1.12158ZM27.0381 14.3389V22H35.0381V14.3389H27.0381ZM31.0381 18H25.8086V26H31.0381V18ZM29.8086 22V14.3389H21.8086V22H29.8086ZM29.3825 12.5424L22.5123 -1.12464L15.3646 2.46839L22.2347 16.1354L29.3825 12.5424ZM18.9385 4.67188H24.4902V-3.32812H18.9385V4.67188ZM42.6689 14.7637H38.6689V18.7637H42.6689V14.7637ZM42.6689 10.7939V6.79395H38.6689V10.7939H42.6689ZM50.7109 9.41699L47.1174 7.66015L47.1091 7.67707L47.101 7.69407L50.7109 9.41699ZM50.7109 6.31152L47.0122 7.83452L47.0249 7.86531L47.0381 7.89589L50.7109 6.31152ZM49.7295 5.11035L47.4452 8.39397L47.4695 8.41088L47.4941 8.42742L49.7295 5.11035ZM44.6025 4.6416V0.641602H40.6025V4.6416H44.6025ZM44.6025 22V26H48.6025V22H44.6025ZM39.4609 22H35.4609V26H39.4609V22ZM39.4609 0.671875V-3.32812H35.4609V0.671875H39.4609ZM52.3809 1.60938L50.5694 5.17571L50.5808 5.18144L52.3809 1.60938ZM55.2373 4.1875L51.8182 6.26341L51.8223 6.27023L51.8265 6.27703L55.2373 4.1875ZM52.3809 13.9141L54.0534 17.5476L54.0661 17.5417L52.3809 13.9141ZM47.9717 10.7637H42.6689V18.7637H47.9717V10.7637ZM46.6689 14.7637V10.7939H38.6689V14.7637H46.6689ZM42.6689 14.7939H47.9717V6.79395H42.6689V14.7939ZM47.9717 14.7939C49.1017 14.7939 50.4118 14.6095 51.6395 13.9422L47.8194 6.91324C47.9907 6.82016 48.1114 6.79187 48.1373 6.78647C48.1611 6.78151 48.1133 6.79395 47.9717 6.79395V14.7939ZM51.6395 13.9422C52.7722 13.3266 53.7249 12.3886 54.3209 11.1399L47.101 7.69407C47.1831 7.52203 47.2985 7.35327 47.4421 7.20541C47.5836 7.05966 47.7206 6.96697 47.8194 6.91324L51.6395 13.9422ZM54.3045 11.1738C54.8169 10.1257 55.0332 9.02078 55.0332 7.9375H47.0332C47.0332 7.94831 47.0322 7.92146 47.0443 7.8662C47.0566 7.80942 47.0795 7.7376 47.1174 7.66015L54.3045 11.1738ZM55.0332 7.9375C55.0332 6.85089 54.8313 5.76459 54.3838 4.72716L47.0381 7.89589C47.0352 7.88916 47.0329 7.88272 47.0311 7.8772C47.0294 7.87171 47.0289 7.8688 47.029 7.86922C47.0291 7.86969 47.0301 7.87487 47.0311 7.88552C47.0321 7.89624 47.0332 7.91333 47.0332 7.9375H55.0332ZM54.4096 4.78852C53.9025 3.55684 53.0641 2.53403 51.9649 1.79329L47.4941 8.42742C47.41 8.37074 47.3097 8.28534 47.2143 8.16859C47.1187 8.05168 47.0532 7.93393 47.0122 7.83452L54.4096 4.78852ZM52.0138 1.82673C50.7092 0.919219 49.2524 0.641602 47.9717 0.641602V8.6416C48.1363 8.6416 47.8513 8.67648 47.4452 8.39397L52.0138 1.82673ZM47.9717 0.641602H44.6025V8.6416H47.9717V0.641602ZM40.6025 4.6416V22H48.6025V4.6416H40.6025ZM44.6025 18H39.4609V26H44.6025V18ZM43.4609 22V0.671875H35.4609V22H43.4609ZM39.4609 4.67188H47.9717V-3.32812H39.4609V4.67188ZM47.9717 4.67188C49.1983 4.67188 50.0182 4.8957 50.5694 5.17569L54.1923 -1.95694C52.2826 -2.92695 50.163 -3.32812 47.9717 -3.32812V4.67188ZM50.5808 5.18144C51.2112 5.49912 51.5761 5.86471 51.8182 6.26341L58.6565 2.11159C57.5704 0.322791 56.031 -1.03037 54.181 -1.96269L50.5808 5.18144ZM51.8265 6.27703C52.0678 6.67105 52.2334 7.17414 52.2334 7.9082H60.2334C60.2334 5.84929 59.7349 3.87192 58.6482 2.09797L51.8265 6.27703ZM52.2334 7.9082C52.2334 8.61472 52.0727 9.0396 51.8799 9.33739L58.5947 13.686C59.73 11.9331 60.2334 9.95559 60.2334 7.9082H52.2334ZM51.8799 9.33739C51.6729 9.65705 51.3368 9.98855 50.6956 10.2864L54.0661 17.5417C55.9054 16.6872 57.4736 15.4172 58.5947 13.686L51.8799 9.33739ZM50.7083 10.2805C50.1208 10.551 49.2496 10.7637 47.9717 10.7637V18.7637C50.1118 18.7637 52.18 18.41 54.0534 17.5476L50.7083 10.2805ZM73.6797 18.0449H77.6797V14.0449H73.6797V18.0449ZM73.6797 22V26H77.6797V22H73.6797ZM62.3125 22H58.3125V26H62.3125V22ZM62.3125 18.0449V14.0449H58.3125V18.0449H62.3125ZM64.1436 0.671875H68.1436V-3.32812H64.1436V0.671875ZM64.1436 22V26H68.1436V22H64.1436ZM59.002 22H55.002V26H59.002V22ZM59.002 0.671875V-3.32812H55.002V0.671875H59.002ZM72.2148 9.13867H76.2148V5.13867H72.2148V9.13867ZM72.2148 12.9619V16.9619H76.2148V12.9619H72.2148ZM62.3125 12.9619H58.3125V16.9619H62.3125V12.9619ZM62.3125 9.13867V5.13867H58.3125V9.13867H62.3125ZM73.7236 0.671875H77.7236V-3.32812H73.7236V0.671875ZM73.7236 4.6416V8.6416H77.7236V4.6416H73.7236ZM62.3125 4.6416H58.3125V8.6416H62.3125V4.6416ZM62.3125 0.671875V-3.32812H58.3125V0.671875H62.3125ZM69.6797 18.0449V22H77.6797V18.0449H69.6797ZM73.6797 18H62.3125V26H73.6797V18ZM66.3125 22V18.0449H58.3125V22H66.3125ZM62.3125 22.0449H73.6797V14.0449H62.3125V22.0449ZM60.1436 0.671875V22H68.1436V0.671875H60.1436ZM64.1436 18H59.002V26H64.1436V18ZM63.002 22V0.671875H55.002V22H63.002ZM59.002 4.67188H64.1436V-3.32812H59.002V4.67188ZM68.2148 9.13867V12.9619H76.2148V9.13867H68.2148ZM72.2148 8.96191H62.3125V16.9619H72.2148V8.96191ZM66.3125 12.9619V9.13867H58.3125V12.9619H66.3125ZM62.3125 13.1387H72.2148V5.13867H62.3125V13.1387ZM69.7236 0.671875V4.6416H77.7236V0.671875H69.7236ZM73.7236 0.641602H62.3125V8.6416H73.7236V0.641602ZM66.3125 4.6416V0.671875H58.3125V4.6416H66.3125ZM62.3125 4.67188H73.7236V-3.32812H62.3125V4.67188Z" fill="#2C72B8"/>
</svg>
